<svg width="75" height="66" viewBox="0 0 75 66" fill="none" xmlns="http://www.w3.org/2000/svg">
<g clip-path="url(#clip0_34:530)">
<path d="M39.3705 28.1531C39.3705 30.3703 38.0118 31.6465 35.618 31.6465H32.4738V24.6598H35.631C38.0118 24.6598 39.3705 25.923 39.3705 28.1531ZM45.5167 36.2227C45.5167 37.2926 46.4483 37.9887 47.9105 37.9887C49.7738 37.9887 51.1712 36.8156 51.1712 35.1656V34.1731L48.1304 34.3664C46.4095 34.4824 45.5167 35.1141 45.5167 36.2227ZM74.7986 10.1836V55.5586C74.7986 58.9746 72.0166 61.7461 68.5877 61.7461H6.47849C3.04955 61.7461 0.267578 58.9746 0.267578 55.5586V10.1836C0.267578 6.76758 3.04955 3.99609 6.47849 3.99609H68.5877C72.0166 3.99609 74.7986 6.76758 74.7986 10.1836ZM16.8041 25.4203C17.8911 25.5105 18.978 24.8789 19.6637 24.0797C20.3366 23.2547 20.7765 22.1461 20.6601 21.0246C19.7026 21.0633 18.5121 21.6563 17.8264 22.4813C17.2053 23.1902 16.6747 24.3375 16.8041 25.4203ZM24.6454 35.0238C24.6195 34.9981 22.1093 34.0441 22.0834 31.1566C22.0575 28.7461 24.0632 27.5859 24.1537 27.5215C23.0151 25.8457 21.2553 25.6652 20.6471 25.6266C19.0685 25.5363 17.7228 26.516 16.9724 26.516C16.2089 26.516 15.0703 25.6652 13.8281 25.691C12.2107 25.7168 10.6967 26.632 9.88156 28.0887C8.1865 31.002 9.44162 35.3074 11.0849 37.6793C11.8872 38.8523 12.8576 40.1414 14.1257 40.0898C15.329 40.0383 15.8078 39.3164 17.257 39.3164C18.7192 39.3164 19.1332 40.0898 20.4013 40.077C21.7211 40.0512 22.5363 38.9039 23.3515 37.7309C24.2443 36.3902 24.6195 35.1012 24.6454 35.0238ZM42.1654 28.1402C42.1654 24.7113 39.7716 22.3652 36.3556 22.3652H29.7306V39.9481H32.4738V33.941H36.265C39.7328 33.941 42.1654 31.5691 42.1654 28.1402ZM53.8108 31.1953C53.8108 28.6559 51.7664 27.0188 48.6351 27.0188C45.7237 27.0188 43.5758 28.6816 43.4981 30.9504H45.9696C46.1766 29.8676 47.1859 29.1586 48.5575 29.1586C50.2396 29.1586 51.1712 29.932 51.1712 31.3758V32.3426L47.7552 32.5488C44.5721 32.7422 42.8512 34.0441 42.8512 36.3C42.8512 38.5816 44.6239 40.0898 47.1729 40.0898C48.8939 40.0898 50.4854 39.2262 51.21 37.8469H51.2618V39.9609H53.7979V31.1953H53.8108ZM67.0349 27.1863H64.253L61.031 37.5762H60.9793L57.7574 27.1863H54.8719L59.5171 39.9867L59.2713 40.7602C58.8572 42.075 58.1714 42.5906 56.9551 42.5906C56.7352 42.5906 56.3211 42.5648 56.1529 42.552V44.666C56.3082 44.7176 56.9939 44.7305 57.201 44.7305C59.8794 44.7305 61.1346 43.7121 62.2344 40.6313L67.0349 27.1863Z" fill="white"/>
</g>
<defs>
<clipPath id="clip0_34:530">
<rect width="74.531" height="66" fill="white" transform="translate(0.267578)"/>
</clipPath>
</defs>
</svg>
