<svg width="75" height="66" viewBox="0 0 75 66" fill="none" xmlns="http://www.w3.org/2000/svg">
<g clip-path="url(#clip0_34:526)">
<path d="M62.2245 52.8902C62.2245 53.7668 61.6369 54.3984 60.7939 54.3984C59.9252 54.3984 59.3632 53.7281 59.3632 52.8902C59.3632 52.0523 59.9252 51.382 60.7939 51.382C61.6369 51.382 62.2245 52.0523 62.2245 52.8902ZM22.5237 51.382C21.6167 51.382 21.093 52.0523 21.093 52.8902C21.093 53.7281 21.6167 54.3984 22.5237 54.3984C23.354 54.3984 23.916 53.7668 23.916 52.8902C23.9032 52.0523 23.354 51.382 22.5237 51.382ZM37.5328 51.3434C36.8431 51.3434 36.4215 51.7945 36.3193 52.4648H38.7591C38.6442 51.7301 38.1971 51.3434 37.5328 51.3434ZM51.303 51.382C50.4343 51.382 49.9106 52.0523 49.9106 52.8902C49.9106 53.7281 50.4343 54.3984 51.303 54.3984C52.1716 54.3984 52.7336 53.7668 52.7336 52.8902C52.7336 52.0523 52.1716 51.382 51.303 51.382ZM64.8304 54.7465C64.8304 54.7852 64.8687 54.8109 64.8687 54.8883C64.8687 54.927 64.8304 54.9527 64.8304 55.0301C64.792 55.0688 64.792 55.0945 64.7665 55.1332C64.7282 55.1719 64.7026 55.1977 64.626 55.1977C64.5877 55.2363 64.5621 55.2363 64.4855 55.2363C64.4471 55.2363 64.4216 55.2363 64.345 55.1977C64.3066 55.1977 64.2811 55.159 64.2428 55.1332C64.2044 55.0945 64.1789 55.0688 64.1789 55.0301C64.1406 54.9656 64.1406 54.927 64.1406 54.8883C64.1406 54.8238 64.1406 54.7852 64.1789 54.7465C64.1789 54.682 64.2172 54.6434 64.2428 54.6047C64.2811 54.566 64.3066 54.566 64.345 54.5402C64.4088 54.5016 64.4471 54.5016 64.4855 54.5016C64.5493 54.5016 64.5877 54.5016 64.626 54.5402C64.6898 54.5789 64.7282 54.5789 64.7665 54.6047C64.8048 54.6305 64.792 54.682 64.8304 54.7465ZM64.5493 54.927C64.6132 54.927 64.6132 54.8883 64.6515 54.8883C64.6898 54.8496 64.6898 54.8238 64.6898 54.7852C64.6898 54.7465 64.6898 54.7207 64.6515 54.682C64.6132 54.682 64.5877 54.6434 64.511 54.6434H64.3066V55.0945H64.4088V54.9141H64.4471L64.5877 55.0945H64.6898L64.5493 54.927ZM74.1169 10.4414V55.8164C74.1169 59.2324 71.3705 62.0039 67.9855 62.0039H6.67144C3.2864 62.0039 0.540039 59.2324 0.540039 55.8164V10.4414C0.540039 7.02539 3.2864 4.25391 6.67144 4.25391H67.9855C71.3705 4.25391 74.1169 7.02539 74.1169 10.4414ZM8.71524 28.4367C8.71524 38.298 16.6477 46.2902 26.4069 46.2902C29.8814 46.2902 33.292 45.2332 36.1788 43.3125C26.8668 35.6684 26.9306 21.2437 36.1788 13.5996C33.292 11.666 29.8814 10.6219 26.4069 10.6219C16.6477 10.609 8.71524 18.6141 8.71524 28.4367ZM37.3285 42.4617C46.334 35.3719 46.2956 21.5531 37.3285 14.4246C28.3613 21.5531 28.323 35.3848 37.3285 42.4617ZM19.1514 52.2973C19.1514 51.1758 18.4233 50.441 17.2737 50.4023C16.6861 50.4023 16.0602 50.5828 15.6386 51.2402C15.3321 50.7117 14.8083 50.4023 14.0802 50.4023C13.5948 50.4023 13.1094 50.5828 12.7262 51.0984V50.5312H11.6788V55.2621H12.7262C12.7262 52.8258 12.4069 51.3691 13.8758 51.3691C15.1788 51.3691 14.9233 52.684 14.9233 55.2621H15.9324C15.9324 52.9031 15.6131 51.3691 17.0821 51.3691C18.385 51.3691 18.1295 52.6582 18.1295 55.2621H19.177V52.2973H19.1514ZM24.8868 50.5312H23.8777V51.0984C23.5328 50.673 23.0474 50.4023 22.3832 50.4023C21.0675 50.4023 20.0583 51.4594 20.0583 52.8902C20.0583 54.334 21.0675 55.3781 22.3832 55.3781C23.0474 55.3781 23.5328 55.1332 23.8777 54.682V55.275H24.8868V50.5312ZM30.0602 53.8312C30.0602 51.8977 27.135 52.7742 27.135 51.8719C27.135 51.1371 28.6551 51.2531 29.4981 51.7301L29.9197 50.8922C28.7189 50.1059 26.062 50.1188 26.062 51.9492C26.062 53.7926 28.9872 53.0191 28.9872 53.8828C28.9872 54.6949 27.2627 54.6305 26.343 53.9859L25.8959 54.798C27.3266 55.7777 30.0602 55.5715 30.0602 53.8312ZM34.5821 55.0301L34.3011 54.1535C33.8157 54.4242 32.7427 54.7207 32.7427 53.625V51.4852H34.416V50.5312H32.7427V49.0875H31.6952V50.5312H30.7244V51.4723H31.6952V53.625C31.6952 55.8937 33.9051 55.4813 34.5821 55.0301ZM36.281 53.3027H39.7938C39.7938 51.2145 38.8485 50.3895 37.5712 50.3895C36.2171 50.3895 35.2463 51.4078 35.2463 52.8773C35.2463 55.5199 38.1332 55.9582 39.5639 54.7078L39.0785 53.9344C38.0821 54.7594 36.5748 54.682 36.281 53.3027ZM43.8303 50.5312C43.2427 50.2734 42.3485 50.2992 41.8887 51.0984V50.5312H40.8412V55.2621H41.8887V52.5938C41.8887 51.0984 43.1022 51.2918 43.5237 51.5109L43.8303 50.5312ZM45.1843 52.8902C45.1843 51.4207 46.6661 50.9438 47.8285 51.8074L48.3139 50.9695C46.8321 49.7965 44.1369 50.441 44.1369 52.9031C44.1369 55.4555 46.9982 55.9711 48.3139 54.8367L47.8285 53.9988C46.6533 54.8367 45.1843 54.334 45.1843 52.8902ZM53.7044 50.5312H52.657V51.0984C51.5967 49.6805 48.8376 50.4797 48.8376 52.8902C48.8376 55.3652 51.6989 56.0742 52.657 54.682V55.275H53.7044V50.5312ZM58.0092 50.5312C57.7026 50.3766 56.6041 50.1574 56.0676 51.0984V50.5312H55.0584V55.2621H56.0676V52.5938C56.0676 51.1758 57.2172 51.266 57.7026 51.5109L58.0092 50.5312ZM63.157 48.6105H62.1479V51.0984C61.1004 49.6934 58.3285 50.441 58.3285 52.8902C58.3285 55.391 61.2026 56.0613 62.1479 54.682V55.275H63.157V48.6105ZM64.1278 38.9297V39.5227H64.23V38.9297H64.4727V38.8266H63.8851V38.9297H64.1278ZM64.9709 54.8883C64.9709 54.8238 64.9709 54.7465 64.9326 54.682C64.8942 54.6434 64.8687 54.5789 64.8304 54.5402C64.792 54.5016 64.7282 54.4758 64.6898 54.4371C64.626 54.4371 64.5493 54.3984 64.4855 54.3984C64.4471 54.3984 64.3833 54.4371 64.3066 54.4371C64.2428 54.4758 64.2044 54.5016 64.1661 54.5402C64.1023 54.5789 64.0639 54.6434 64.0639 54.682C64.0256 54.7465 64.0256 54.8238 64.0256 54.8883C64.0256 54.927 64.0256 54.9914 64.0639 55.0688C64.0639 55.1074 64.1023 55.1719 64.1661 55.2105C64.2044 55.2492 64.23 55.275 64.3066 55.3137C64.3705 55.3523 64.4471 55.3523 64.4855 55.3523C64.5493 55.3523 64.626 55.3523 64.6898 55.3137C64.7282 55.275 64.792 55.2492 64.8304 55.2105C64.8687 55.1719 64.8942 55.1074 64.9326 55.0688C64.9709 54.9914 64.9709 54.927 64.9709 54.8883ZM65.3796 38.8137H65.2008L64.9964 39.2648L64.792 38.8137H64.6132V39.5098H64.7154V38.9813L64.9198 39.4324H65.0603L65.2391 38.9813V39.5098H65.3796V38.8137ZM65.9417 28.4367C65.9417 18.6141 58.0092 10.609 48.25 10.609C44.7756 10.609 41.365 11.666 38.4781 13.5867C47.688 21.2309 47.8285 35.6941 38.4781 43.2996C41.365 45.2332 44.8011 46.2773 48.25 46.2773C58.0092 46.2902 65.9417 38.298 65.9417 28.4367Z" fill="white"/>
</g>
<defs>
<clipPath id="clip0_34:526">
<rect width="73.5768" height="66" fill="white" transform="translate(0.540039)"/>
</clipPath>
</defs>
</svg>
