<svg width="75" height="66" viewBox="0 0 75 66" fill="none" xmlns="http://www.w3.org/2000/svg">
<g clip-path="url(#clip0_34:528)">
<path d="M24.1862 33.2836C24.1862 34.8563 22.9311 36.0551 21.3395 36.0551C20.1491 36.0551 19.2692 35.3848 19.2692 34.1215C19.2692 32.5488 20.4985 31.2855 22.0771 31.2855C23.2804 31.2855 24.1862 32.0203 24.1862 33.2836ZM10.4963 27.0316H9.88815C9.69406 27.0316 9.49997 27.1605 9.47409 27.3797L8.91769 30.8215L9.97873 30.7828C11.4021 30.7828 12.5019 30.5895 12.7607 28.9523C13.0583 27.225 11.9585 27.0316 10.4963 27.0316ZM47.2442 27.0316H46.6619C46.429 27.0316 46.2738 27.1605 46.2479 27.3797L45.7044 30.8215L46.7396 30.7828C48.4217 30.7828 49.5863 30.3961 49.5863 28.4625C49.5733 27.0961 48.3441 27.0316 47.2442 27.0316ZM74.6111 10.3125V55.6875C74.6111 59.1035 71.8291 61.875 68.4002 61.875H6.29099C2.86205 61.875 0.0800781 59.1035 0.0800781 55.6875V10.3125C0.0800781 6.89648 2.86205 4.125 6.29099 4.125H68.4002C71.8291 4.125 74.6111 6.89648 74.6111 10.3125ZM16.6813 27.7664C16.6813 25.0594 14.5852 24.157 12.1914 24.157H7.0156C6.69212 24.157 6.36863 24.4148 6.34275 24.7629L4.22069 37.9242C4.18187 38.182 4.37596 38.4398 4.63475 38.4398H7.09324C7.4426 38.4398 7.76609 38.066 7.8049 37.7051L8.38718 34.2762C8.51657 33.348 10.0952 33.6703 10.7163 33.6703C14.4169 33.6703 16.6813 31.4789 16.6813 27.7664ZM27.5763 28.9008H25.1178C24.6261 28.9008 24.6003 29.6098 24.5744 29.9578C23.8239 28.8621 22.737 28.6687 21.5077 28.6687C18.3376 28.6687 15.9179 31.4402 15.9179 34.4953C15.9179 37.009 17.4965 38.6461 20.0197 38.6461C21.1843 38.6461 22.6335 38.0145 23.4487 37.1121C23.384 37.3055 23.3193 37.718 23.3193 37.9113C23.3193 38.2078 23.4487 38.427 23.7333 38.427H25.9589C26.3083 38.427 26.6059 38.0531 26.6706 37.6922L27.9904 29.4035C28.0292 29.1586 27.8351 28.9008 27.5763 28.9008ZM32.8168 41.5207L41.0592 29.584C41.1239 29.5195 41.1239 29.4551 41.1239 29.3648C41.1239 29.1457 40.9298 28.9137 40.7098 28.9137H38.2255C38.0055 28.9137 37.7726 29.0426 37.6432 29.2359L34.2142 34.2633L32.7909 29.4293C32.6874 29.1457 32.4027 28.9137 32.0792 28.9137H29.6596C29.4396 28.9137 29.2455 29.1457 29.2455 29.3648C29.2455 29.5195 31.7687 36.6867 31.9887 37.3699C31.6393 37.8598 29.3361 41.0566 29.3361 41.4434C29.3361 41.6754 29.5302 41.8559 29.7501 41.8559H32.2345C32.4674 41.843 32.6874 41.7141 32.8168 41.5207ZM53.4293 27.7664C53.4293 25.0594 51.3331 24.157 48.9393 24.157H43.8023C43.453 24.157 43.1295 24.4148 43.0907 24.7629L40.9945 37.9113C40.9686 38.1691 41.1627 38.427 41.4085 38.427H44.0611C44.3199 38.427 44.514 38.2336 44.5787 38.0145L45.161 34.2762C45.2904 33.348 46.869 33.6703 47.4901 33.6703C51.1649 33.6703 53.4293 31.4789 53.4293 27.7664ZM64.3242 28.9008H61.8658C61.3741 28.9008 61.3482 29.6098 61.3094 29.9578C60.5977 28.8621 59.4978 28.6687 58.2427 28.6687C55.0726 28.6687 52.6529 31.4402 52.6529 34.4953C52.6529 37.009 54.2315 38.6461 56.7547 38.6461C57.9581 38.6461 59.4073 38.0145 60.1836 37.1121C60.1448 37.3055 60.0542 37.718 60.0542 37.9113C60.0542 38.2078 60.1836 38.427 60.4683 38.427H62.7068C63.0562 38.427 63.3538 38.0531 63.4185 37.6922L64.7383 29.4035C64.7771 29.1586 64.583 28.9008 64.3242 28.9008ZM70.4705 24.6082C70.4705 24.3504 70.2764 24.157 70.0564 24.157H67.6626C67.4685 24.157 67.2744 24.3117 67.2485 24.5051L65.1524 37.9113L65.1135 37.9758C65.1135 38.2078 65.3076 38.427 65.5664 38.427H67.7014C68.0249 38.427 68.3484 38.0531 68.3743 37.6922L70.4705 24.6469V24.6082ZM58.825 31.2855C57.2464 31.2855 56.0171 32.5359 56.0171 34.1215C56.0171 35.3719 56.9229 36.0551 58.1133 36.0551C59.6661 36.0551 60.9212 34.8691 60.9212 33.2836C60.9341 32.0203 60.0284 31.2855 58.825 31.2855Z" fill="white"/>
</g>
<defs>
<clipPath id="clip0_34:528">
<rect width="74.531" height="66" fill="white" transform="translate(0.0800781)"/>
</clipPath>
</defs>
</svg>
