<svg width="75" height="66" viewBox="0 0 75 66" fill="none" xmlns="http://www.w3.org/2000/svg">
<g clip-path="url(#clip0_34:524)">
<path d="M60.4976 29.816C60.4976 29.816 61.4756 34.6113 61.6944 35.6168H57.3961C57.8208 34.4695 59.4552 30.0094 59.4552 30.0094C59.4294 30.048 59.8799 28.8363 60.1372 28.0887L60.4976 29.816ZM74.1259 10.3125V55.6875C74.1259 59.1035 71.3591 61.875 67.9488 61.875H6.17716C2.76685 61.875 0 59.1035 0 55.6875V10.3125C0 6.89648 2.76685 4.125 6.17716 4.125H67.9488C71.3591 4.125 74.1259 6.89648 74.1259 10.3125ZM19.6254 42.6937L27.7586 22.6875H22.2893L17.2317 36.3516L16.6783 33.5801L14.8767 24.3762C14.5807 23.1 13.667 22.7391 12.5345 22.6875H4.20819L4.11811 23.0871C6.15142 23.6027 7.96596 24.3504 9.54886 25.2914L14.156 42.6937H19.6254ZM31.7738 42.7195L35.0168 22.6875H29.8434L26.6133 42.7195H31.7738ZM49.7776 36.1711C49.8034 33.8895 48.4135 32.1492 45.4407 30.7184C43.6262 29.8031 42.5195 29.1844 42.5195 28.2434C42.5452 27.3926 43.4589 26.516 45.4922 26.516C47.1781 26.4773 48.4135 26.877 49.3401 27.2766L49.8034 27.4957L50.5112 23.1645C49.4945 22.7648 47.873 22.3137 45.8783 22.3137C40.7693 22.3137 37.1788 25.0465 37.153 28.9395C37.1144 31.8141 39.7269 33.4125 41.683 34.3793C43.6777 35.359 44.3597 36.0035 44.3597 36.8672C44.334 38.2078 42.7382 38.8266 41.2583 38.8266C39.1992 38.8266 38.0925 38.5043 36.4066 37.7566L35.7246 37.4344L35.0039 41.9332C36.2136 42.4875 38.4528 42.9773 40.7693 43.0031C46.2 43.016 49.739 40.3219 49.7776 36.1711ZM67.9488 42.7195L63.7792 22.6875H59.7769C58.5415 22.6875 57.602 23.0484 57.0744 24.3504L49.3915 42.7195H54.8223C54.8223 42.7195 55.7103 40.2445 55.9033 39.716H62.5438C62.6982 40.425 63.1615 42.7195 63.1615 42.7195H67.9488Z" fill="white"/>
</g>
<defs>
<clipPath id="clip0_34:524">
<rect width="74.1259" height="66" fill="white"/>
</clipPath>
</defs>
</svg>
