<svg width="66" height="75" viewBox="0 0 66 75" fill="none" xmlns="http://www.w3.org/2000/svg">
<g clip-path="url(#clip0_34:514)">
<path d="M58.4416 4.6875H7.01299C5.15303 4.6875 3.36925 5.42829 2.05406 6.74691C0.738866 8.06552 0 9.85395 0 11.7188L0 63.2812C0 65.1461 0.738866 66.9345 2.05406 68.2531C3.36925 69.5717 5.15303 70.3125 7.01299 70.3125H27.0657V48.0015H17.8612V37.5H27.0657V29.4961C27.0657 20.3921 32.4716 15.3633 40.7513 15.3633C44.7166 15.3633 48.863 16.0723 48.863 16.0723V25.0078H44.2943C39.7929 25.0078 38.3888 27.8086 38.3888 30.6812V37.5H48.4378L46.8307 48.0015H38.3888V70.3125H58.4416C60.3015 70.3125 62.0853 69.5717 63.4005 68.2531C64.7157 66.9345 65.4545 65.1461 65.4545 63.2812V11.7188C65.4545 9.85395 64.7157 8.06552 63.4005 6.74691C62.0853 5.42829 60.3015 4.6875 58.4416 4.6875Z" fill="white"/>
</g>
<defs>
<clipPath id="clip0_34:514">
<rect width="65.4545" height="75" fill="white"/>
</clipPath>
</defs>
</svg>
