<svg width="66" height="75" viewBox="0 0 66 75" fill="none" xmlns="http://www.w3.org/2000/svg">
<g clip-path="url(#clip0_34:520)">
<path d="M32.8271 20.6545C23.5107 20.6545 15.9961 28.1692 15.9961 37.4856C15.9961 46.802 23.5107 54.3166 32.8271 54.3166C42.1435 54.3166 49.6582 46.802 49.6582 37.4856C49.6582 28.1692 42.1435 20.6545 32.8271 20.6545ZM32.8271 48.428C26.8066 48.428 21.8848 43.5207 21.8848 37.4856C21.8848 31.4504 26.792 26.5432 32.8271 26.5432C38.8623 26.5432 43.7695 31.4504 43.7695 37.4856C43.7695 43.5207 38.8476 48.428 32.8271 48.428ZM54.2724 19.9661C54.2724 22.1487 52.5146 23.8918 50.3467 23.8918C48.1641 23.8918 46.4209 22.134 46.4209 19.9661C46.4209 17.7981 48.1787 16.0403 50.3467 16.0403C52.5146 16.0403 54.2724 17.7981 54.2724 19.9661ZM65.4199 23.9504C65.1709 18.6916 63.9697 14.0334 60.1172 10.1956C56.2793 6.35767 51.6211 5.15649 46.3623 4.89282C40.9424 4.58521 24.6973 4.58521 19.2773 4.89282C14.0332 5.14185 9.375 6.34302 5.52246 10.1809C1.66992 14.0188 0.483398 18.677 0.219726 23.9358C-0.0878906 29.3557 -0.0878906 45.6008 0.219726 51.0207C0.46875 56.2795 1.66992 60.9377 5.52246 64.7756C9.375 68.6135 14.0186 69.8147 19.2773 70.0784C24.6973 70.386 40.9424 70.386 46.3623 70.0784C51.6211 69.8293 56.2793 68.6282 60.1172 64.7756C63.9551 60.9377 65.1562 56.2795 65.4199 51.0207C65.7275 45.6008 65.7275 29.3704 65.4199 23.9504ZM58.4179 56.8362C57.2754 59.7073 55.0635 61.9192 52.1777 63.0764C47.8564 64.7903 37.6025 64.3948 32.8271 64.3948C28.0518 64.3948 17.7832 64.7756 13.4766 63.0764C10.6055 61.9338 8.39355 59.7219 7.23633 56.8362C5.52246 52.5149 5.91797 42.261 5.91797 37.4856C5.91797 32.7102 5.53711 22.4416 7.23633 18.135C8.3789 15.2639 10.5908 13.052 13.4766 11.8948C17.7978 10.1809 28.0518 10.5764 32.8271 10.5764C37.6025 10.5764 47.8711 10.1956 52.1777 11.8948C55.0488 13.0374 57.2607 15.2493 58.4179 18.135C60.1318 22.4563 59.7363 32.7102 59.7363 37.4856C59.7363 42.261 60.1318 52.5295 58.4179 56.8362Z" fill="white"/>
</g>
<defs>
<clipPath id="clip0_34:520">
<rect width="65.625" height="75" fill="white"/>
</clipPath>
</defs>
</svg>
