<svg width="75" height="75" viewBox="0 0 75 75" fill="none" xmlns="http://www.w3.org/2000/svg">
<path d="M67.2905 22.2242C67.3381 22.8904 67.3381 23.5568 67.3381 24.223C67.3381 44.5433 51.8719 67.9571 23.6041 67.9571C14.8953 67.9571 6.80522 65.4348 0 61.0568C1.23735 61.1995 2.42695 61.2471 3.71191 61.2471C10.8977 61.2471 17.5126 58.8201 22.795 54.6799C16.0374 54.5371 10.3743 50.1113 8.42314 44.0199C9.375 44.1626 10.3267 44.2578 11.3262 44.2578C12.7062 44.2578 14.0864 44.0674 15.3712 43.7344C8.32808 42.3066 3.04556 36.1202 3.04556 28.6487V28.4585C5.0918 29.6006 7.47144 30.3144 9.99346 30.4095C5.85322 27.6493 3.14077 22.938 3.14077 17.6081C3.14077 14.7528 3.90205 12.1354 5.23462 9.85112C12.8013 19.1785 24.175 25.2698 36.9287 25.9361C36.6908 24.794 36.548 23.6044 36.548 22.4147C36.548 13.9438 43.4008 7.04346 51.9192 7.04346C56.3449 7.04346 60.3423 8.89941 63.1501 11.8975C66.624 11.2313 69.9552 9.94634 72.9059 8.1856C71.7636 11.7548 69.3366 14.7529 66.1482 16.6564C69.2416 16.3234 72.2396 15.4666 74.9997 14.277C72.9062 17.3226 70.2886 20.035 67.2905 22.2242Z" fill="white"/>
</svg>
