<svg width="84" height="75" viewBox="0 0 84 75" fill="none" xmlns="http://www.w3.org/2000/svg">
<path d="M80.1581 18.1762C79.2421 14.7119 76.5433 11.9834 73.1166 11.0575C66.9056 9.375 42 9.375 42 9.375C42 9.375 17.0946 9.375 10.8834 11.0575C7.45676 11.9836 4.75796 14.7119 3.84198 18.1762C2.17773 24.4556 2.17773 37.5568 2.17773 37.5568C2.17773 37.5568 2.17773 50.6581 3.84198 56.9375C4.75796 60.4018 7.45676 63.0166 10.8834 63.9425C17.0946 65.625 42 65.625 42 65.625C42 65.625 66.9054 65.625 73.1166 63.9425C76.5433 63.0166 79.2421 60.4018 80.1581 56.9375C81.8223 50.6581 81.8223 37.5568 81.8223 37.5568C81.8223 37.5568 81.8223 24.4556 80.1581 18.1762ZM33.8545 49.4518V25.6619L54.6706 37.5571L33.8545 49.4518Z" fill="white"/>
</svg>
